<svg xmlns="http://www.w3.org/2000/svg" width="407.5" height="407.5"><rect width="407.5" height="407.5" fill="#faf5dd" rx="47.5" ry="47.5"/><g fill="#132d2c" stroke-width="1.15" transform="translate(267.93 77.47) scale(.86955)"><path d="M-116.08 285.77c14.12 4.21 28.37 6.22 42.39 6.22 63.78 0 122.67-41.54 141.84-105.79 3.65-12.25 5.65-24.59 6.11-36.8-4.2 1.53-8.68 2.35-13.26 2.35-3.63 0-7.32-.52-10.97-1.61-14.31-4.27-24.28-16.09-26.92-29.81a63.076 63.076 0 0 1-27.69 6.43c-5.97 0-12.03-.85-18.04-2.65-31.78-9.48-50.49-41.77-43.63-73.65-20.32-10.03-33.54-30.01-35.43-52.01-52.46 10.12-97.64 48.34-113.97 103.08-23.38 78.37 21.2 160.85 99.57 184.23zm-71.81-175.95c10.22-34.26 34.87-61.49 66.86-75.27a94.1 94.1 0 0 0 24.43 30.6c.71 39.19 26.77 75.13 65.69 86.74a91.985 91.985 0 0 0 26.32 3.86c4.16 0 8.32-.29 12.45-.86 8.21 10.47 19.47 18.44 32.63 22.64-.04.13-.08.26-.12.4-14.95 50.1-61.86 85.1-114.08 85.1-11.49 0-22.97-1.69-34.11-5.01-62.93-18.78-98.86-85.25-80.09-148.18z" class="cls-1"/><rect width="32.77" height="32.77" x="-252.77" y="29.708" class="cls-1" rx="3.66" ry="3.66" transform="rotate(-45)"/><rect width="44.91" height="44.91" x="-156.52" y="-140.93" class="cls-1" rx="4.52" ry="4.52" transform="rotate(-82.69)"/><rect width="44.91" height="44.91" x="-231.75" y="-35.057" class="cls-1" rx="4.52" ry="4.52" transform="rotate(-82.69)"/></g></svg>
