<svg xmlns="http://www.w3.org/2000/svg" viewBox="0 0 68 68"><path d="M51.443 41.931c-.017 9.842-9.551 14.317-18.389 14.3-9.248-.012-18.625-4.928-18.625-14.293h-2.962c0 11.434 10.855 17.428 21.58 17.451 10.278.024 21.34-5.434 21.368-17.451h-2.967" fill="#07addb"/><path d="M19.96 42.467a8.1 8.1 0 0 0 4.379 7.054 17.516 17.516 0 0 0 8.709 2.139c6.249.006 12.968-2.865 12.993-9.187l-3.163-.012c-.012 4.165-5.1 6.053-9.823 6.048-4.938-.012-9.948-2.085-9.948-6.036h-3.153" fill="#e6275f"/><path d="M326.938 153.359a8.111 8.111 0 0 0-4.368-7.054 17.669 17.669 0 0 0-8.715-2.139c-6.237-.012-12.968 2.853-12.98 9.187l3.151.012c.024-4.165 5.1-6.042 9.835-6.042 4.938.012 9.948 2.085 9.948 6.036h3.145" transform="translate(-280.895 -134.59)" fill="#dbdbdb" opacity=".8" style="isolation:isolate"/><path d="M76.307 18.263c0-4.656-.759-8.477-4.452-12C67.648 2.207 61.44-.017 54.388 0c-8 .017-14.36 2.432-18.424 6.989a13.333 13.333 0 0 0-3.339 11.541l.016.052c1.033 5.518 5.331 13.179 19.1 13.179 1.741 0 5.8.035 7.757 0 5.086-.069 10.349-.145 14.59.8 8.9 1.986 8.887 9.711 8.887 10.035v.075l.011.081a20.617 20.617 0 0 1-5.131 14.059c-4.915 5.38-12.94 8.112-23.864 8.112-7.786 0-28-4-28-22.3h-3.029C22.962 61.231 41.523 68 53.99 68s20.61-3.087 26.124-9.155A23.315 23.315 0 0 0 86 42.493v.162c.006-.1.114-10.545-11.256-13.092-4.589-1.031-10.274-.949-15.285-.88-1.929.035-6.142.023-7.837.023-9.681 0-14.971-5.188-16.016-10.713a10.182 10.182 0 0 1 2.618-8.951c3.47-3.9 9.053-5.959 16.175-5.976 6.284-.012 11.753 1.911 15.389 5.408 2.58 2.478 3.5 5.038 3.516 9.791h3.014" transform="translate(-21.437)" fill="#dbdbdb" opacity=".8" style="isolation:isolate"/><path d="M25.983 36.024c0 3.128-1.406 4.022-4.921 4.022h-2.776v-7.2h.673c2.342 0 3.122.274 3.122 2.466v.185h.3v-5.672h-.3v.089c0 2.15-.822 2.585-3.122 2.585h-.673v-6.953H21c2.864 0 3.926.572 4.164 3.361h.328l-.262-3.683H14.606v.322h1.52v14.511h-1.52v.322h11.677v-4.414h-.3Zm29.556-10.8v4.416h.3v-.572a4.585 4.585 0 0 1 .477-2.651c.608-.781 1.692-.87 3.467-.87h.888v14.495h-1.586v.322h5.36v-.322H62.86v-14.5h.911c1.781 0 2.841.1 3.449.87a4.634 4.634 0 0 1 .477 2.651v.572H68V25.22Zm-32.8-3.842c.435-.291.649-.589.649-.911v-.072a.755.755 0 0 0-.781-.728c-.346 0-.632.25-1.019.661l-3.056 3.337h.715Zm-15.2 7.346c-2.18-.536-3.866-.536-4.712-1.072a3.3 3.3 0 0 1-1.543-3.1c0-2.537 1.483-3.968 4.045-3.968 2.937 0 4.944 2.121 5.409 5.97h.4v-5.821h-.4v.149c0 .626-.292.983-.727.983-.582 0-2.12-1.7-4.682-1.7-3.233 0-5.3 2.24-5.3 5.851 0 3.372 1.6 4.779 5 5.464 2.155.417 3.781.685 4.8 1.608a3.529 3.529 0 0 1 1.221 2.716v.186a4.5 4.5 0 0 1-4.677 4.316C3.11 40.31.702 37.743.41 33.268H0v7.068h.414c.033-.745.325-1.162.7-1.162.84 0 2.675 1.555 5.35 1.555 3.571 0 5.9-2.568 5.9-6.447 0-3.254-1.483-4.754-4.825-5.554Zm41.668-3.658h-.238l-4.182 13.577c-.3 1.007-.411 1.394-1.561 1.394h-.286v.322h3.76v-.322c-1.191-.048-1.757-.089-1.757-.548a1.808 1.808 0 0 1 .089-.411l1.06-3.635h4.42l1.585 4.594H50.23v.322h5.5v-.322H54.3ZM46.2 35.127l2.012-6.471 2.192 6.47Zm-7.744-9.575c1.668.089 1.906.315 1.906 1.757v9.008l-7.673-11.088h-4.1v.322h1.6v12.706c0 1.37-.146 1.668-1.6 1.781v.322h3.967v-.322c-1.668-.089-1.906-.315-1.906-1.757V26.213l9.91 14.263h.24V27.333c0-1.37.146-1.668 1.6-1.781v-.322h-3.944Z" fill="#242c57"/></svg>
