<svg width="330.61" height="71.389" xmlns="http://www.w3.org/2000/svg">
  <path d="M36.217 52.6V19.833c0-9.048 7.335-16.383 16.384-16.383s16.384 7.335 16.384 16.383c9.049 0 16.384 7.335 16.384 16.383S78.034 52.6 68.985 52.6z" fill="none" stroke="#132d2c" stroke-width="6.899"/>
  <circle cx="19.833" cy="36.216" r="16.384" fill="none" stroke="#132d2c" stroke-linecap="square" stroke-width="6.899"/>
  <path d="M147.43 37.569c0 2.8-.42 5.35-1.27 7.64s-2.02 4.25-3.51 5.87c-1.5 1.62-3.3 2.86-5.4 3.73-2.1.87-4.43 1.3-6.99 1.3-3.04 0-5.65-.59-7.82-1.76s-3.79-2.67-4.85-4.48l-.43 5.3h-6.88v-53.6h7.46v23.11c1.26-2.03 3.01-3.56 5.25-4.6 2.25-1.04 4.67-1.56 7.28-1.56s4.89.45 6.99 1.34 3.9 2.16 5.4 3.8 2.67 3.65 3.51 6.01c.84 2.37 1.27 5 1.27 7.9zm-7.75-.25c0-3.63-.98-6.51-2.93-8.65-1.96-2.13-4.55-3.2-7.79-3.2s-5.84 1.07-7.82 3.2-2.97 5.01-2.97 8.65.99 6.52 2.97 8.65c1.98 2.13 4.59 3.2 7.82 3.2s5.83-1.06 7.79-3.2c1.96-2.13 2.93-5.01 2.93-8.65zM167.28 18.589c2.75 0 5.25.47 7.5 1.41s4.17 2.25 5.76 3.91c1.59 1.67 2.84 3.65 3.73 5.94s1.34 4.79 1.34 7.5-.45 5.2-1.34 7.5c-.89 2.29-2.14 4.27-3.73 5.94s-3.51 2.96-5.76 3.88-4.75 1.38-7.5 1.38-5.25-.46-7.5-1.38-4.17-2.21-5.76-3.88-2.84-3.65-3.73-5.94-1.34-4.79-1.34-7.5.45-5.2 1.34-7.5c.89-2.29 2.14-4.27 3.73-5.94s3.51-2.97 5.76-3.91 4.75-1.41 7.5-1.41zm0 30.5c1.59 0 3.03-.29 4.31-.87s2.39-1.4 3.33-2.46 1.67-2.31 2.17-3.75.76-3.03.76-4.77-.25-3.31-.76-4.73-1.23-2.65-2.17-3.68-2.05-1.84-3.33-2.42-2.72-.87-4.31-.87-3.04.29-4.35.87c-1.3.58-2.42 1.38-3.33 2.42-.92 1.04-1.63 2.26-2.14 3.68s-.76 3-.76 4.73.25 3.32.76 4.77c.51 1.44 1.22 2.7 2.14 3.75.92 1.06 2.03 1.88 3.33 2.46s2.75.87 4.35.87zM201.18 49.879c1.83 0 3.34-.37 4.53-1.12 1.18-.75 1.78-1.92 1.78-3.51 0-2.17-1.4-3.57-4.2-4.2l-5.07-1.38c-6.62-1.83-9.92-5.24-9.92-10.21 0-1.59.3-3.05.91-4.38a9.87 9.87 0 0 1 2.58-3.44c1.11-.96 2.47-1.71 4.07-2.25 1.6-.53 3.39-.8 5.38-.8 3.53 0 6.51.79 8.93 2.35 2.42 1.57 3.88 3.8 4.36 6.7l-6.95 1.67c-.19-1.4-.86-2.5-1.99-3.3s-2.52-1.2-4.17-1.2-3.05.41-4.09 1.23-1.56 1.91-1.56 3.26c0 1.16.39 2.09 1.16 2.79s1.96 1.24 3.56 1.63l5.02 1.3c3.2.82 5.62 2.11 7.27 3.88 1.65 1.76 2.47 3.9 2.47 6.41 0 3.33-1.23 5.96-3.69 7.9-2.46 1.93-5.89 2.9-10.29 2.9-4.1 0-7.34-.89-9.71-2.68s-3.77-4.15-4.2-7.1l6.95-1.23c.19 1.45.88 2.61 2.06 3.48s2.79 1.3 4.82 1.3zM234.94 18.589c4.06 0 7.52.97 10.39 2.9s4.84 4.56 5.9 7.9l-6.66 2.68c-.68-2.03-1.88-3.62-3.62-4.78s-3.72-1.74-5.94-1.74c-3.19 0-5.72 1.07-7.61 3.2-1.88 2.13-2.83 5.01-2.83 8.65 0 3.64.94 6.5 2.83 8.61 1.88 2.11 4.42 3.16 7.61 3.16 2.22 0 4.2-.55 5.94-1.67 1.74-1.11 2.97-2.68 3.69-4.71l6.59 2.54c-1.21 3.37-3.3 6.01-6.27 7.93-2.97 1.91-6.34 2.87-10.1 2.87-2.71 0-5.17-.46-7.39-1.38-2.22-.92-4.12-2.2-5.69-3.84-1.57-1.64-2.79-3.61-3.66-5.9-.87-2.29-1.3-4.84-1.3-7.64s.43-5.42 1.3-7.71c.87-2.29 2.1-4.26 3.69-5.9 1.59-1.64 3.5-2.91 5.72-3.8 2.22-.89 4.68-1.34 7.39-1.34zM271.3 18.589c2.75 0 5.25.47 7.5 1.41s4.17 2.25 5.76 3.91c1.59 1.67 2.84 3.65 3.73 5.94s1.34 4.79 1.34 7.5-.45 5.2-1.34 7.5c-.89 2.29-2.14 4.27-3.73 5.94s-3.51 2.96-5.76 3.88-4.75 1.38-7.5 1.38-5.25-.46-7.5-1.38-4.17-2.21-5.76-3.88-2.84-3.65-3.73-5.94-1.34-4.79-1.34-7.5.45-5.2 1.34-7.5c.89-2.29 2.14-4.27 3.73-5.94s3.51-2.97 5.76-3.91 4.75-1.41 7.5-1.41zm0 30.5c1.59 0 3.03-.29 4.31-.87s2.39-1.4 3.33-2.46 1.67-2.31 2.17-3.75.76-3.03.76-4.77-.25-3.31-.76-4.73-1.23-2.65-2.17-3.68-2.05-1.84-3.33-2.42-2.72-.87-4.31-.87-3.04.29-4.35.87c-1.3.58-2.42 1.38-3.33 2.42-.92 1.04-1.63 2.26-2.14 3.68s-.76 3-.76 4.73.25 3.32.76 4.77c.51 1.44 1.22 2.7 2.14 3.75.92 1.06 2.03 1.88 3.33 2.46s2.75.87 4.35.87zM313.49 56.109c-2.76 0-5.24-.53-7.44-1.58s-3.89-2.49-5.05-4.3v21.16h-7.39v-51.79h6.81l.36 5c1.06-1.83 2.69-3.3 4.86-4.38 2.18-1.09 4.72-1.63 7.62-1.63 2.61 0 4.99.43 7.12 1.3s3.96 2.13 5.48 3.77 2.7 3.63 3.52 5.98c.82 2.34 1.23 4.96 1.23 7.86s-.42 5.49-1.27 7.79c-.85 2.29-2.03 4.24-3.56 5.83s-3.34 2.83-5.45 3.69c-2.11.87-4.39 1.3-6.86 1.3zm9.38-18.79c0-3.63-.98-6.5-2.93-8.61s-4.55-3.16-7.79-3.16-5.96 1.08-7.9 3.23c-1.93 2.16-2.9 5-2.9 8.54 0 3.54.99 6.52 2.97 8.65 1.98 2.13 4.59 3.2 7.82 3.2s5.83-1.06 7.79-3.2c1.96-2.13 2.93-5.01 2.93-8.65z" fill="#132d2c"/>
</svg>
