<svg xmlns="http://www.w3.org/2000/svg" viewBox="0 0 233.4 112.27"><title>Fichier 4</title><g id="Calque_2" data-name="Calque 2"><g id="Calque_1-2" data-name="Calque 1"><g id="Calque_1-2-2" data-name="Calque 1-2"><path d="M233.32,6.47c-2.9,27.5-26.1,59.4-51.1,65s-42.8-12.3-39.8-39.8c0,0,1.1-7.5,5.9-8.6s4,7.7,4,7.7c-2.1,19.5,11.2,32.1,29.8,28s35.9-28.6,38-48.1c0,0,.6-8.8,8.3-10.5C234.42-1.23,233.32,6.47,233.32,6.47Z" style="fill:#5ac4bd"/><polygon points="123.62 15.07 120.52 37.67 93.82 37.67 97.02 15.07 81.52 15.07 78.32 37.67 53.62 37.67 52.32 47.57 76.92 47.57 73.52 72.07 89.02 72.07 92.42 47.57 119.12 47.57 115.62 72.07 131.12 72.07 139.12 15.07 123.62 15.07" style="fill:#3a6dac"/><path d="M64.22,25.07c-24.7,2-46,15.9-47.5,30.9s17.2,25.6,41.9,23.5c0,0,5.6-.4,5.1,3.7s-6.6,4-6.6,4c-34.2,3.2-59.1-10.7-57-31.3s31.4-39.6,65.3-42.4c0,0,8.4-.7,7.8,5.1-.6,5.4-8.6,6.5-8.6,6.5" style="fill:#3a6dac"/><path d="M84.62,103.87a10.54,10.54,0,0,1-7.3,2.9c-4.9,0-8.7-3.6-7.8-9.8a10.57,10.57,0,0,1,10.7-9.5,8.15,8.15,0,0,1,6.3,2.5l1.2-8.3h4l-3.5,24.5h-4ZM86,93.57a7.29,7.29,0,0,0-5.5-2.5,7.1,7.1,0,0,0-7,6.1c-.6,4,2,6.1,5.2,6.1,2.8,0,4.6-1.4,6.3-2.6Z" style="fill:#3a6dac"/><path d="M111.32,100.77a10.45,10.45,0,0,1-9.9,6c-6.2,0-9.4-4-8.6-9.7a10.79,10.79,0,0,1,11-9.6c6.6.1,9.1,4.3,8.2,10.8H96.72c0,1.2.1,4.9,5,5.1a5.73,5.73,0,0,0,5.2-2.7Zm-3.2-5.7c-.2-3.1-2-4.2-4.9-4.2a5.92,5.92,0,0,0-6,4.2Z" style="fill:#3a6dac"/><path d="M125.12,81.67h4.6l-2.9,20.2h17.1l-.6,4.2h-21.7Z" style="fill:#3a6dac"/><path d="M148.92,88.07h4l-2.6,18.1h-4Zm1-7h4l-.5,3.7h-4Z" style="fill:#3a6dac"/><path d="M174.22,100.77a10.45,10.45,0,0,1-9.9,6c-6.2,0-9.4-4-8.6-9.7a10.79,10.79,0,0,1,11-9.6c6.6.1,9.1,4.3,8.2,10.8h-15.3c0,1.2.1,4.9,5,5.1a5.73,5.73,0,0,0,5.2-2.7Zm-3.2-5.7c-.2-3.1-2-4.2-4.9-4.2a5.83,5.83,0,0,0-5.9,4.2Zm-8.6-14.4h4.5l2.9,4.8h-2.9Z" style="fill:#3a6dac"/><path d="M198.42,91.07a3.42,3.42,0,0,0-2.8,0,5.14,5.14,0,0,1,.4,3c-.7,4.9-5.2,6.7-9.8,6.7a11.33,11.33,0,0,1-3.6-.6c-.5.3-1.2.8-1.3,1.4s.2,1.1,3.8,1h5.5c3.9.1,6,1.3,5.6,4.1-.6,4.3-6.9,5.6-12.1,5.6-4.9,0-9-1-8.5-4,.3-2.2,2.2-2.5,3.9-2.8v-.1a2.22,2.22,0,0,1-2.3-2.1,2,2,0,0,1,.1-.7,4.51,4.51,0,0,1,3.5-3.4v-.1a4.92,4.92,0,0,1-2.2-5.2c.8-5.3,5.6-6.6,9.9-6.6a8.64,8.64,0,0,1,5.8,1.7,6.42,6.42,0,0,1,3.9-2h.6Zm-15.9,15.4c-.9,0-2.3.3-2.5,1.3-.2,1.5,1.6,1.6,4.8,1.6s6.6-.4,6.8-1.8c.2-1.2-.6-1.2-5-1.1Zm9.5-12.4c.4-2.7-2.2-3.5-4.3-3.5s-4.8.8-5.2,3.5,2,3.5,4.1,3.5S191.62,96.77,192,94.07Z" style="fill:#3a6dac"/><path d="M217.52,100.77a10.45,10.45,0,0,1-9.9,6c-6.2,0-9.4-4-8.6-9.7a10.79,10.79,0,0,1,11-9.6c6.6.1,9.1,4.3,8.2,10.8h-15.3c0,1.2.1,4.9,5,5.1a5.73,5.73,0,0,0,5.2-2.7Zm-3.1-5.7c-.2-3.1-2-4.2-4.9-4.2a5.83,5.83,0,0,0-5.9,4.2Z" style="fill:#3a6dac"/></g></g></g></svg>