<svg xmlns="http://www.w3.org/2000/svg" width="384" height="90.678" viewBox="0 0 384 90.678">
  <g id="Groupe_3" data-name="Groupe 3" transform="translate(-320 -337)">
    <g id="Groupe_2" data-name="Groupe 2" transform="translate(320 337)">
      <g id="Groupe_1" data-name="Groupe 1" transform="translate(27.786 0)">
        <path id="Tracé_2" data-name="Tracé 2" d="M491.215,141.553c-8.773,0-13.673-4.72-13.673-13.8V108.374h7.572v18.837c0,4.634,1.96,7.44,6.28,7.44,4.275,0,6.234-2.806,6.234-7.44V108.374H505.2v19.374c0,9.085-5.211,13.8-13.985,13.8" transform="translate(-477.542 -97.546)"/>
        <path id="Tracé_3" data-name="Tracé 3" d="M558.488,141.019V108.374h20.664v6.947H566.06v5.835h11.935v6.591H566.06v6.369h13.092v6.9Z" transform="translate(-457.309 -97.546)"/>
        <path id="Tracé_4" data-name="Tracé 4" d="M610.556,141.081l-.4-16.032-9.04,11.445h-.8l-9.13-11.445-.311,16.032h-7.3l1.514-32.869,1.025-.088,14.787,18.659,14.428-18.659,1.025.088,1.557,32.869Z" transform="translate(-451.04 -97.609)"/>
        <path id="Tracé_5" data-name="Tracé 5" d="M630.137,127.1a24.7,24.7,0,0,0-2.85.135V134.8a30.75,30.75,0,0,0,3.162.134c3.831,0,5.656-1.471,5.656-3.92,0-2.494-1.96-3.92-5.969-3.92m.58-12.381a19.121,19.121,0,0,0-3.43.314v6.812a22.386,22.386,0,0,0,2.806.134c3.651,0,5.479-1.336,5.479-3.695,0-1.961-1.649-3.565-4.855-3.565m-1.024,26.678a84.731,84.731,0,0,1-9.753-.668V108.836a73.921,73.921,0,0,1,9.13-.712c9.486,0,14.294,4.231,14.294,8.775,0,3.429-1.915,5.745-5.61,7.259,4.452,1.336,6.546,3.919,6.546,7.661,0,5.077-4.809,9.575-14.607,9.575" transform="translate(-441.948 -97.609)"/>
        <path id="Tracé_6" data-name="Tracé 6" d="M663.321,114.716c-5.166,0-8.64,4.23-8.64,10.111,0,5.832,3.474,10.11,8.64,10.11s8.642-4.277,8.642-10.11c0-5.881-3.476-10.111-8.642-10.111m-.131,26.944c-10.112,0-16.568-7.261-16.568-16.833,0-9.621,6.768-16.88,16.878-16.88,10.067,0,16.568,7.259,16.568,16.88,0,9.572-6.814,16.833-16.878,16.833" transform="translate(-435.278 -97.653)"/>
        <path id="Tracé_7" data-name="Tracé 7" d="M695.136,141.553c-8.775,0-13.675-4.72-13.675-13.8V108.374h7.572v18.837c0,4.634,1.961,7.44,6.281,7.44,4.275,0,6.234-2.806,6.234-7.44V108.374h7.572v19.374c0,9.085-5.212,13.8-13.985,13.8" transform="translate(-426.57 -97.546)"/>
        <path id="Tracé_8" data-name="Tracé 8" d="M723.039,114.967a15.818,15.818,0,0,0-2.941.221v9a22.819,22.819,0,0,0,2.405.134c3.607,0,5.923-1.737,5.923-5.032,0-2.716-2.139-4.319-5.387-4.319m6.725,26.1L724.2,130.419a12.386,12.386,0,0,1-1.29.045c-1.113,0-1.737-.045-2.807-.089v10.688h-7.57V108.731a82.747,82.747,0,0,1,9.617-.536c10.156,0,14.166,4.855,14.166,10.823a10.956,10.956,0,0,1-5.612,9.442l7.66,12.6Z" transform="translate(-418.804 -97.591)"/>
        <path id="Tracé_9" data-name="Tracé 9" d="M768.239,122.777v15.587a23.512,23.512,0,0,1-12.381,3.3c-9.576,0-17.147-6.86-17.147-16.836,0-10.02,7.66-16.878,17.548-16.878a22.823,22.823,0,0,1,10.954,2.8l-3.162,6.1a15.833,15.833,0,0,0-7.3-1.825c-6.5,0-9.976,4.051-9.976,9.8,0,6.234,4.186,10.11,9.53,10.11a9.495,9.495,0,0,0,4.811-.891v-4.81h-6.547v-6.457Z" transform="translate(-412.26 -97.653)"/>
        <path id="Tracé_10" data-name="Tracé 10" d="M558.509,174.886V160.648h3.3v11.227h5.71v3.01Z" transform="translate(-457.303 -84.48)"/>
        <path id="Tracé_11" data-name="Tracé 11" d="M569.1,174.886V160.648h9.011v3.031H572.4v2.544h5.2V169.1h-5.2v2.779h5.709v3.01Z" transform="translate(-454.656 -84.48)"/>
        <path id="Tracé_12" data-name="Tracé 12" d="M586.917,163.679v11.206h-3.3V163.679h-4.272v-3.031H591.19v3.031Z" transform="translate(-452.096 -84.48)"/>
        <path id="Tracé_13" data-name="Tracé 13" d="M592.058,165.221l-.253-.389a3.857,3.857,0,0,0,1.165-1.689,1.374,1.374,0,0,1-1.4-1.361,1.319,1.319,0,0,1,1.3-1.32,1.467,1.467,0,0,1,1.477,1.612,3.7,3.7,0,0,1-2.292,3.146" transform="translate(-449.039 -84.526)"/>
        <path id="Tracé_14" data-name="Tracé 14" d="M601.031,175.165a9.6,9.6,0,0,1-4.8-1.457l.914-2.99a7.106,7.106,0,0,0,3.981,1.379c1.165,0,1.612-.545,1.612-1.242,0-.739-.37-1.244-2.545-2.117-2.506-1.01-3.38-2.467-3.38-4.176,0-2.077,1.691-4.1,5.011-4.1a7.816,7.816,0,0,1,3.982,1.106l-.835,2.954a6.411,6.411,0,0,0-3.147-1.165c-1.2,0-1.689.562-1.689,1.145,0,.932.718,1.244,2.5,2,2.66,1.126,3.456,2.409,3.456,4.234,0,2.272-1.65,4.429-5.069,4.429" transform="translate(-447.874 -84.526)"/>
        <path id="Tracé_15" data-name="Tracé 15" d="M623.886,174.913l-.175-6.994-3.943,4.994h-.35l-3.981-4.994-.136,6.994h-3.186l.661-14.335.446-.039,6.449,8.139,6.292-8.139.448.039.68,14.335Z" transform="translate(-443.904 -84.507)"/>
        <path id="Tracé_16" data-name="Tracé 16" d="M633.478,166.381l-1.417,3.421h2.816Zm3.516,8.529-1.069-2.585h-4.915l-1.067,2.585h-3.361l6.7-14.353h.448l6.7,14.353Z" transform="translate(-440.288 -84.503)"/>
        <path id="Tracé_17" data-name="Tracé 17" d="M648.831,174.886l-5.225-6.662v6.662h-3.3V160.648h3.3v6.195l4.991-6.195h3.9l-5.847,6.779,6.157,7.459Z" transform="translate(-436.858 -84.48)"/>
        <path id="Tracé_18" data-name="Tracé 18" d="M653.42,174.886V160.648h9.012v3.031h-5.71v2.544h5.2V169.1h-5.2v2.779h5.71v3.01Z" transform="translate(-433.579 -84.48)"/>
        <rect id="Rectangle_1" data-name="Rectangle 1" width="3.302" height="14.237" transform="translate(239.731 76.168)"/>
        <path id="Tracé_19" data-name="Tracé 19" d="M682.813,163.679v11.206h-3.3V163.679h-4.272v-3.031h11.847v3.031Z" transform="translate(-428.126 -84.48)"/>
        <path id="Tracé_20" data-name="Tracé 20" d="M701.421,174.886v-5.711h-5.477v5.711h-3.3V160.648h3.3v5.575h5.477v-5.575h3.3v14.237Z" transform="translate(-423.775 -84.48)"/>
        <path id="Tracé_21" data-name="Tracé 21" d="M711.844,166.381l-1.417,3.421h2.816Zm3.516,8.529-1.069-2.585h-4.915l-1.068,2.585h-3.361l6.7-14.353h.448l6.7,14.353Z" transform="translate(-420.699 -84.503)"/>
        <path id="Tracé_22" data-name="Tracé 22" d="M723.2,163.659a9.534,9.534,0,0,0-1.224.077v4.06c.465.02.68.039.99.039,1.747,0,2.622-.759,2.622-2.136,0-1.146-.758-2.04-2.389-2.04m0,7.031c-.466,0-.776-.019-1.224-.039V174.9h-3.3V160.8a37.462,37.462,0,0,1,3.962-.234c4.117,0,6.332,2.195,6.332,5.07,0,2.932-2,5.05-5.769,5.05" transform="translate(-417.269 -84.499)"/>
        <path id="Tracé_23" data-name="Tracé 23" d="M734.789,163.659a9.52,9.52,0,0,0-1.224.077v4.06c.467.02.68.039.99.039,1.747,0,2.622-.759,2.622-2.136,0-1.146-.757-2.04-2.389-2.04m0,7.031c-.466,0-.776-.019-1.224-.039V174.9h-3.3V160.8a37.464,37.464,0,0,1,3.962-.234c4.117,0,6.332,2.195,6.332,5.07,0,2.932-2,5.05-5.769,5.05" transform="translate(-414.371 -84.499)"/>
        <path id="Tracé_24" data-name="Tracé 24" d="M741.857,174.886V160.648h9.011v3.031h-5.708v2.544h5.2V169.1h-5.2v2.779h5.708v3.01Z" transform="translate(-411.473 -84.48)"/>
        <path id="Tracé_25" data-name="Tracé 25" d="M764.635,175.212,756.05,167.5v7.439h-3.3V160.509l.447-.077,8.469,7.654V160.7h3.3v14.451Z" transform="translate(-408.751 -84.534)"/>
        <path id="Tracé_26" data-name="Tracé 26" d="M507.371,99.711h10.86l10.86,10.86v10.86h-10.86l-10.86-10.86Z" transform="translate(-470.086 -99.711)" fill="#e30613"/>
        <path id="Tracé_27" data-name="Tracé 27" d="M555.156,99.711H544.3l-10.86,10.86v10.86H544.3l10.86-10.86Z" transform="translate(-463.57 -99.711)" fill="#009fe3"/>
        <path id="Tracé_28" data-name="Tracé 28" d="M533.436,125.776H544.3l10.86,10.86V147.5H544.3l-10.86-10.86Z" transform="translate(-463.571 -93.196)" fill="#e30613"/>
        <path id="Tracé_29" data-name="Tracé 29" d="M529.091,125.776h-10.86l-10.86,10.86V147.5h10.86l10.86-10.86Z" transform="translate(-470.086 -93.196)" fill="#009fe3"/>
      </g>
      <path id="Tracé_30" data-name="Tracé 30" d="M455.313,141.019V108.374h7.571v25.742h13.093v6.9Z" transform="translate(-455.313 -97.546)"/>
    </g>
  </g>
</svg>
