<svg xmlns="http://www.w3.org/2000/svg" viewBox="0 0 179 56">
   <g>
      <path
         d="M 49.01348,22.09732 C 47.194896,6.0543467 36.968654,0 25.453613,0 11.212148,0 -0.07497382,10.215613 0,28 0.07497382,45.784387 11.212148,56 25.453613,56 36.817114,56 47.194615,50.020973 49.013199,33.978 H 37.650541 c -1.288237,10.065067 -6.666672,11.80536 -11.96957,11.80536 -7.575543,0 -14.317095,-3.78392 -14.317095,-17.78336 0,-13.99944 6.741552,-17.784387 14.317095,-17.784387 5.302898,0 10.681707,1.81664 11.96957,11.881334 z" />
      <path
         d="m 28.921152,23.8756 c 2.931851,0 4.391685,-1.778467 4.391685,-3.865493 0,-2.087027 -1.459834,-3.865494 -4.391685,-3.865494 -2.931852,0 -4.391685,1.779027 -4.391685,3.865494 0,2.086466 1.459833,3.865493 4.391685,3.865493 z" />
      <path
         d="m 28.921152,39.8566 c 2.931851,0 4.391685,-1.778 4.391685,-3.865493 0,-2.087494 -1.459834,-3.864934 -4.391685,-3.864934 -2.931852,0 -4.391685,1.778467 -4.391685,3.864934 0,2.086466 1.459833,3.865493 4.391685,3.865493 z" />
      <path d="m 37.603683,24.442787 -7.160563,3.60052 7.160656,3.515026 z" />
   </g>
   <g>
      <g>
         <path
            d="m 57.773047,16.312613 h 8.792929 v -3.238666 c -0.49692,0.686548 -1.329091,1.050081 -2.172835,0.9492 H 60.760566 V 6.104 c -0.06302,-0.5890086 0.09417,-1.1804847 0.441502,-1.6613333 H 57.773047 C 58.120134,4.9236152 58.277112,5.5150658 58.213986,6.104 v 8.54728 c 0.06314,0.588935 -0.09384,1.180389 -0.440939,1.661333 z" />
         <path
            d="m 68.902348,16.312613 h 8.962839 v -3.238666 c -0.23478,0.608925 -0.840995,0.994047 -1.494415,0.949386 H 71.889867 V 11.39544 h 4.210343 c 0.350445,-0.03537 0.701492,0.06119 0.984031,0.270667 V 8.9193067 C 76.801799,9.1290368 76.450749,9.2258626 76.10021,9.19072 H 71.889867 V 6.7315733 h 4.379596 c 0.473573,-0.048927 0.929773,0.1924608 1.154129,0.61068 V 4.4426667 h -8.521244 c 0.347136,0.4809257 0.50412,1.072395 0.44094,1.6613333 v 8.54728 c 0.06318,0.588938 -0.0938,1.180408 -0.44094,1.661333 z" />
         <path
            d="m 84.810013,14.362693 c -1.459835,0 -2.478166,-0.593693 -2.461766,-1.91632 h -2.291294 c -0.06794,2.28956 1.239037,4.20532 4.75306,4.20532 3.07252,0 4.837967,-1.729746 4.837967,-3.899933 C 89.801568,11.297033 88.839534,9.9574021 87.407574,9.632 L 83.485975,8.6477067 c -0.679169,-0.16912 -0.882442,-0.5083867 -0.882442,-1.03432 0,-0.61012 0.627906,-1.2208 2.20648,-1.2208 1.341,0 2.291387,0.5592533 2.291387,1.7297466 h 2.29195 C 89.240497,5.2905067 87.288178,4.10312 84.810013,4.10312 c -2.614712,0 -4.668152,1.4413467 -4.668152,3.7308133 -0.08996,1.5160671 0.976062,2.8582757 2.478166,3.1202267 l 3.768653,0.89852 c 0.503993,0.119293 0.843818,0.588736 0.79819,1.10264 0,0.881533 -0.815153,1.407373 -2.376857,1.407373 z" />
      </g>
      <g>
         <path
            d="m 62.780642,24.065347 c 1.188054,0 2.393164,0.406653 2.682376,2.66224 h 2.546111 c -0.407577,-3.59464 -2.699058,-4.951147 -5.279001,-4.951147 -3.191916,0 -5.720971,2.288907 -5.70457,6.273773 0.0164,3.984867 2.512654,6.27424 5.70457,6.27424 2.545643,0 4.871424,-1.33952 5.279001,-4.93416 h -2.546111 c -0.289212,2.255027 -1.494322,2.64516 -2.682376,2.64516 -1.697595,0 -3.208411,-0.84812 -3.208411,-3.985333 0,-3.137213 1.510816,-3.984773 3.208411,-3.984773 z" />
         <path
            d="M 73.189453 22.115234 L 69.386719 33.001953 C 69.243658 33.460937 68.890542 33.826213 68.435547 33.986328 L 72.560547 33.986328 C 71.915866 33.833635 71.813329 33.545067 71.949219 33.052734 L 72.578125 31.1875 L 77.126953 31.1875 L 77.753906 33.052734 C 77.889796 33.544694 77.771819 33.833261 77.126953 33.986328 L 81.251953 33.986328 C 80.823418 33.843609 80.486023 33.510399 80.335938 33.085938 L 76.566406 22.115234 L 73.189453 22.115234 z M 74.886719 24.472656 L 76.363281 28.898438 L 73.359375 28.898438 L 74.886719 24.472656 z " />
         <path
            d="m 84.037595,33.985467 h 3.42874 c -0.347404,-0.481029 -0.50459,-1.072705 -0.441502,-1.661894 v -7.919146 h 2.580599 c 0.473605,-0.04897 0.929853,0.192427 1.154222,0.61068 v -2.89968 H 80.744838 v 2.89968 c 0.224289,-0.41805 0.680249,-0.659409 1.15366,-0.61068 h 2.580599 v 7.919146 c 0.06309,0.589189 -0.0941,1.180865 -0.441502,1.661894 z" />
         <path
            d="M 95.005859 22.115234 L 91.203125 33.001953 C 91.059705 33.460886 90.706963 33.82608 90.251953 33.986328 L 94.378906 33.986328 C 93.733663 33.833728 93.631688 33.544228 93.767578 33.052734 L 94.394531 31.1875 L 98.945312 31.1875 L 99.572266 33.052734 C 99.707594 33.544228 99.590087 33.833728 98.945312 33.986328 L 103.06836 33.986328 C 102.63981 33.843694 102.30203 33.510521 102.15234 33.085938 L 98.384766 22.115234 L 95.005859 22.115234 z M 96.703125 24.472656 L 98.179688 28.898438 L 95.175781 28.898438 L 96.703125 24.472656 z " />
         <path
            d="m 114.39337,29.390107 h -2.54667 c -0.28809,2.25512 -1.49376,2.645253 -2.68144,2.645253 -1.69806,0 -3.20888,-0.84756 -3.20888,-3.985333 0,-3.137774 1.51082,-3.985334 3.20888,-3.985334 1.18768,0 2.39335,0.40712 2.68144,2.66224 h 2.54667 c -0.40758,-3.59464 -2.69906,-4.951146 -5.27956,-4.951146 -3.19079,0 -5.72041,2.288906 -5.70289,6.273773 0.0175,3.984867 2.51163,6.274333 5.70289,6.274333 2.54695,5.6e-4 4.87227,-1.339146 5.27984,-4.933786 z" />
         <path
            d="M 121.88281 21.777344 C 118.8952 21.777344 116.34766 23.862448 116.34766 28.050781 C 116.34766 32.239115 118.8952 34.324219 121.88281 34.324219 C 124.87042 34.324219 127.41602 32.239115 127.41602 28.050781 C 127.41602 23.862448 124.87042 21.777344 121.88281 21.777344 z M 121.88281 24.064453 C 124.03831 24.064453 124.86914 25.693928 124.86914 28.050781 C 124.86914 30.391208 124.03887 32.035156 121.88281 32.035156 C 119.72731 32.035156 118.89453 30.391208 118.89453 28.050781 C 118.89453 25.693928 119.72731 24.064453 121.88281 24.064453 z " />
         <path
            d="m 142.44098,22.115427 h -4.39656 l -2.27498,9.275746 -2.20639,-9.275746 h -4.20968 c 0.34709,0.480944 0.50407,1.072398 0.44094,1.661333 v 8.547373 c 0.0632,0.588943 -0.0938,1.180431 -0.44094,1.661334 h 3.17429 c -0.34743,-0.480801 -0.50459,-1.072326 -0.44141,-1.661334 V 24.99812 l 2.17312,8.987347 h 3.02098 l 2.17311,-8.783787 v 7.122453 c 0.0631,0.589032 -0.0941,1.180563 -0.44159,1.661334 h 3.42911 c -0.34706,-0.480948 -0.50388,-1.072447 -0.44047,-1.661334 V 23.77676 c -0.0633,-0.588868 0.0934,-1.180331 0.44047,-1.661333 z" />
         <path
            d="M 145.12695 22.115234 C 145.47392 22.596224 145.62972 23.188464 145.56641 23.777344 L 145.56641 32.324219 C 145.62971 32.913099 145.47392 33.505338 145.12695 33.986328 L 151.30469 33.986328 C 153.68145 33.986328 155.125 32.543187 155.125 30.677734 C 155.23462 29.257522 154.18834 28.009374 152.76562 27.863281 C 153.90318 27.388368 154.64037 26.277212 154.63281 25.048828 C 154.63281 23.454882 153.70005 22.115234 151.01758 22.115234 L 145.12695 22.115234 z M 148.11328 24.404297 L 150.84766 24.404297 C 151.81501 24.404297 152.25586 24.878668 152.25586 25.556641 C 152.27956 25.917943 152.14231 26.271847 151.88086 26.523438 C 151.6194 26.775029 151.2602 26.899271 150.89844 26.863281 L 148.11523 26.863281 L 148.11328 24.404297 z M 148.11328 29.068359 L 151.2207 29.068359 C 151.57921 29.056279 151.92712 29.191628 152.18359 29.441406 C 152.44006 29.691185 152.58225 30.033397 152.57812 30.390625 C 152.57812 31.152971 152.15366 31.695312 151.13477 31.695312 L 148.11328 31.695312 L 148.11328 29.068359 z " />
         <path
            d="m 164.78599,31.696 h -4.48137 v -2.627707 h 4.20969 c 0.35071,-0.03509 0.70195,0.06143 0.98497,0.270667 v -2.7468 c -0.28298,0.20932 -0.63425,0.305849 -0.98497,0.270667 h -4.20969 v -2.4584 h 4.3795 c 0.47355,-0.04877 0.92966,0.192573 1.15413,0.61068 v -2.89968 h -8.52124 c 0.34745,0.480791 0.50465,1.072314 0.4415,1.661333 v 8.546813 c 0.0632,0.589226 -0.094,1.180964 -0.4415,1.661987 h 8.96284 v -3.238667 c -0.23462,0.608767 -0.84065,0.993801 -1.49386,0.949107 z" />
         <path
            d="m 175.82233,27.304293 -3.9216,-0.983826 c -0.67926,-0.16912 -0.88244,-0.508387 -0.88244,-1.034227 0,-0.61012 0.6279,-1.220893 2.20648,-1.220893 1.3409,0 2.29185,0.559346 2.29185,1.729746 h 2.29139 c -0.15285,-2.831826 -2.10461,-4.018653 -4.58278,-4.018653 -2.61405,0 -4.66824,1.440787 -4.66824,3.730253 -0.0899,1.516248 0.9764,2.858527 2.47873,3.120227 l 3.76818,0.89852 c 0.5041,0.119118 0.84398,0.588696 0.7981,1.10264 0,0.881533 -0.81534,1.407373 -2.37677,1.407373 -1.45992,0 -2.47826,-0.5936 -2.46129,-1.91632 h -2.29186 c -0.0678,2.289467 1.23913,4.20532 4.75315,4.20532 3.07299,0 4.83797,-1.729746 4.83797,-3.899933 0.15407,-1.455078 -0.80832,-2.79519 -2.24078,-3.120227 z" />
      </g>
      <g>
         <path
            d="M 57.773438 39.787109 C 58.120908 40.268107 58.278004 40.860025 58.214844 41.449219 L 58.214844 49.996094 C 58.278004 50.585113 58.120899 51.177415 57.773438 51.658203 L 62.712891 51.658203 C 65.514288 51.658203 67.890625 49.724416 67.890625 45.722656 C 67.890625 41.720896 65.514288 39.787109 62.712891 39.787109 L 57.773438 39.787109 z M 60.759766 42.078125 L 62.865234 42.078125 C 64.596848 42.078125 65.34375 43.517936 65.34375 45.722656 C 65.343656 47.910296 64.596754 49.369141 62.865234 49.369141 L 60.759766 49.369141 L 60.759766 42.078125 z " />
         <path
            d="m 77.63633,49.36876 h -4.481373 v -2.627427 h 4.210155 c 0.350425,-0.03513 0.701386,0.0614 0.984031,0.270667 v -2.746987 c -0.282645,0.209268 -0.633606,0.305803 -0.984031,0.270667 h -4.210155 v -2.4584 h 4.379971 c 0.473569,-0.04878 0.929721,0.192559 1.154222,0.61068 V 39.788 h -8.521806 c 0.347439,0.480799 0.504636,1.072316 0.441502,1.661333 v 8.546814 c 0.06311,0.58919 -0.09408,1.180872 -0.441502,1.661893 h 8.962745 v -3.238667 c -0.234361,0.608964 -0.840463,0.994183 -1.493759,0.949387 z" />
      </g>
      <g>
         <path
            d="M 86.228516 39.787109 C 86.575763 40.268198 86.733154 40.860088 86.669922 41.449219 L 86.669922 49.996094 C 86.733182 50.585052 86.575779 51.177336 86.228516 51.658203 L 89.658203 51.658203 C 89.311277 51.177179 89.153849 50.585014 89.216797 49.996094 L 89.216797 47.757812 L 91.507812 47.757812 C 94.546314 47.757812 95.972656 46.079891 95.972656 43.773438 C 95.972656 41.466985 94.546314 39.787109 91.507812 39.787109 L 86.228516 39.787109 z M 92.029297 42.074219 C 92.37674 42.109676 92.705917 42.260426 92.960938 42.507812 C 93.300965 42.837662 93.471676 43.302922 93.425781 43.773438 C 93.459971 44.240905 93.284471 44.700376 92.947266 45.027344 C 92.610061 45.354311 92.146043 45.515281 91.677734 45.46875 L 89.216797 45.46875 L 89.216797 42.078125 L 91.677734 42.078125 C 91.795505 42.06361 91.913483 42.0624 92.029297 42.074219 z " />
         <path
            d="M 100.55859 39.787109 L 96.755859 50.673828 C 96.612483 51.132647 96.259491 51.497737 95.804688 51.658203 L 99.929688 51.658203 C 99.284443 51.50551 99.182469 51.216849 99.318359 50.724609 L 99.945312 48.859375 L 104.49609 48.859375 L 105.12305 50.724609 C 105.25894 51.216569 105.14149 51.50523 104.49609 51.658203 L 108.62109 51.658203 C 108.19276 51.515426 107.85509 51.184069 107.70508 50.759766 L 103.93555 39.787109 L 100.55859 39.787109 z M 102.25586 42.144531 L 103.73242 46.570312 L 100.72656 46.570312 L 102.25586 42.144531 z " />
         <path
            d="M 110.04883 39.789062 C 110.39623 40.269878 110.55338 40.860214 110.49023 41.449219 L 110.49023 49.996094 C 110.55333 50.585268 110.39614 51.177143 110.04883 51.658203 L 113.47852 51.658203 C 113.13107 51.177195 112.97208 50.585296 113.03516 49.996094 L 113.03516 47.164062 L 116.24414 47.164062 C 116.95733 47.164062 117.16211 47.606171 117.16211 48.148438 L 117.16211 49.980469 C 117.10491 50.605943 117.33493 51.222407 117.78906 51.658203 L 120.37109 51.658203 C 119.87859 51.126634 119.63772 50.411202 119.70898 49.691406 L 119.70703 48.097656 C 119.80729 47.226809 119.21482 46.426468 118.34961 46.265625 C 119.30421 45.599397 119.84916 44.491574 119.79297 43.332031 C 119.79297 41.313884 118.36672 39.789063 115.32812 39.789062 L 110.04883 39.789062 z M 113.03711 42.078125 L 115.59961 42.078125 C 116.17388 42.036135 116.72344 42.31717 117.02344 42.806641 C 117.32344 43.296112 117.32344 43.910921 117.02344 44.400391 C 116.72344 44.889862 116.17388 45.170891 115.59961 45.128906 L 113.03711 45.128906 L 113.03711 42.078125 z " />
         <path
            d="m 126.20297,39.787813 h -3.42912 c 0.34747,0.480998 0.50466,1.072699 0.4415,1.661894 v 8.546813 c 0.0632,0.58902 -0.094,1.180546 -0.4415,1.661333 h 3.42912 c -0.34722,-0.480905 -0.50439,-1.072335 -0.44151,-1.661333 v -8.54644 c -0.063,-0.589198 0.0941,-1.180864 0.44123,-1.66208 z" />
         <path
            d="m 136.08377,44.977147 -3.92095,-0.983827 c -0.67935,-0.16912 -0.88309,-0.508387 -0.88309,-1.034227 0,-0.610213 0.6279,-1.220893 2.20694,-1.220893 1.341,0 2.29195,0.559253 2.29195,1.729747 h 2.29139 c -0.15285,-2.831827 -2.10508,-4.019214 -4.58334,-4.019214 -2.61471,0 -4.66815,1.441254 -4.66815,3.730814 -0.0902,1.516135 0.97595,2.858469 2.47817,3.120226 l 3.76818,0.89852 c 0.50406,0.119114 0.84393,0.588637 0.7981,1.102547 0,0.881627 -0.8145,1.407467 -2.3763,1.407467 -1.4603,0 -2.47863,-0.593694 -2.46167,-1.91632 h -2.29139 c -0.0678,2.289466 1.23913,4.20532 4.75306,4.20532 3.07252,0 4.8375,-1.729747 4.8375,-3.900027 0.15393,-1.454949 -0.80839,-2.794881 -2.24069,-3.119947 z" />
      </g>
   </g>
</svg>