<?xml version="1.0" encoding="UTF-8" standalone="no"?>
<!-- Created with Inkscape (http://www.inkscape.org/) -->

<svg
   xmlns:dc="http://purl.org/dc/elements/1.1/"
   xmlns:cc="http://creativecommons.org/ns#"
   xmlns:rdf="http://www.w3.org/1999/02/22-rdf-syntax-ns#"
   xmlns:svg="http://www.w3.org/2000/svg"
   xmlns="http://www.w3.org/2000/svg"
   xmlns:sodipodi="http://sodipodi.sourceforge.net/DTD/sodipodi-0.dtd"
   xmlns:inkscape="http://www.inkscape.org/namespaces/inkscape"
   version="1.1"
   id="svg2"
   xml:space="preserve"
   width="310"
   height="105"
   viewBox="0 0 310 105"
   sodipodi:docname="sos.svg"
   inkscape:version="0.92.2 (5c3e80d, 2017-08-06)"><metadata
     id="metadata8"><rdf:RDF><cc:Work
         rdf:about=""><dc:format>image/svg+xml</dc:format><dc:type
           rdf:resource="http://purl.org/dc/dcmitype/StillImage" /><dc:title></dc:title></cc:Work></rdf:RDF></metadata><defs
     id="defs6"><clipPath
       clipPathUnits="userSpaceOnUse"
       id="clipPath18"><path
         d="M 22.677,82.205 H 572.598 V 819.212 H 22.677 Z"
         id="path16"
         inkscape:connector-curvature="0" /></clipPath><clipPath
       clipPathUnits="userSpaceOnUse"
       id="clipPath40"><path
         d="M 0,0 H 595.276 V 841.89 H 0 Z"
         id="path38"
         inkscape:connector-curvature="0" /></clipPath><clipPath
       clipPathUnits="userSpaceOnUse"
       id="clipPath70"><path
         d="m 188.93,682.941 h 217.416 v 68.828 H 188.93 Z"
         id="path68"
         inkscape:connector-curvature="0" /></clipPath></defs><sodipodi:namedview
     pagecolor="#ffffff"
     bordercolor="#666666"
     borderopacity="1"
     objecttolerance="10"
     gridtolerance="10"
     guidetolerance="10"
     inkscape:pageopacity="0"
     inkscape:pageshadow="2"
     inkscape:window-width="1600"
     inkscape:window-height="837"
     id="namedview4"
     showgrid="false"
     fit-margin-top="5"
     fit-margin-left="5"
     fit-margin-right="5"
     fit-margin-bottom="5"
     inkscape:zoom="2.3786081"
     inkscape:cx="148.37953"
     inkscape:cy="1.3949194"
     inkscape:window-x="-8"
     inkscape:window-y="-8"
     inkscape:window-maximized="1"
     inkscape:current-layer="g10" /><g
     id="g10"
     inkscape:groupmode="layer"
     inkscape:label="rapport_activite_2016"
     transform="matrix(1.3333333,0,0,-1.3333333,-246.90533,1010.5867)"><g
       id="g958"
       transform="matrix(1.0348777,0,0,1.0351742,-6.5894096,-24.021839)"><g
         style="fill:#1a2747;fill-opacity:1"
         transform="translate(204.224,703.824)"
         id="g56"><path
           inkscape:connector-curvature="0"
           id="path58"
           style="fill:#1a2747;fill-opacity:1;fill-rule:nonzero;stroke:none"
           d="M 0,0 -4.53,-9.824 -9.03,0 h -6.265 v -20.884 h 5.736 v 11.002 l 3.5,-7.736 H -3 l 3.5,7.736 V -20.884 H 6.235 V 0 Z" /></g><g
         style="fill:#1a2747;fill-opacity:1"
         transform="translate(213.548,703.824)"
         id="g60"><path
           inkscape:connector-curvature="0"
           id="path62"
           style="fill:#1a2747;fill-opacity:1;fill-rule:nonzero;stroke:none"
           d="m 0,0 v -20.884 h 14.882 v 5.002 H 5.735 v 3.294 h 7.589 v 4.646 H 5.735 V -5 h 8.883 v 5 z" /></g><g
         style="fill:#1a2747;fill-opacity:1"
         id="g64"><g
           style="fill:#1a2747;fill-opacity:1"
           clip-path="url(#clipPath70)"
           id="g66"><g
             style="fill:#1a2747;fill-opacity:1"
             transform="translate(243.343,693.412)"
             id="g72"><path
               inkscape:connector-curvature="0"
               id="path74"
               style="fill:#1a2747;fill-opacity:1;fill-rule:nonzero;stroke:none"
               d="M 0,0 C 0,0.804 -0.108,1.539 -0.324,2.206 -0.539,2.872 -0.849,3.441 -1.25,3.912 -1.652,4.383 -2.147,4.75 -2.735,5.015 -3.324,5.28 -3.981,5.412 -4.706,5.412 H -7 V -5.47 h 2.294 c 0.745,0 1.412,0.136 2,0.411 0.588,0.275 1.083,0.657 1.485,1.147 0.402,0.49 0.706,1.069 0.912,1.735 C -0.103,-1.51 0,-0.784 0,0 m -12.736,-10.471 v 20.883 h 8.03 c 1.726,0 3.245,-0.275 4.559,-0.823 C 1.166,9.04 2.265,8.294 3.147,7.353 4.03,6.412 4.696,5.309 5.147,4.044 5.598,2.779 5.824,1.431 5.824,0 c 0,-1.588 -0.25,-3.025 -0.75,-4.309 -0.5,-1.284 -1.212,-2.382 -2.133,-3.294 -0.922,-0.912 -2.029,-1.617 -3.323,-2.118 -1.295,-0.5 -2.736,-0.75 -4.324,-0.75 z" /></g><path
             inkscape:connector-curvature="0"
             id="path76"
             style="fill:#1a2747;fill-opacity:1;fill-rule:nonzero;stroke:none"
             d="m 251.166,703.824 h 5.736 v -20.883 h -5.736 z" /><g
             style="fill:#1a2747;fill-opacity:1"
             transform="translate(276.255,698.824)"
             id="g78"><path
               inkscape:connector-curvature="0"
               id="path80"
               style="fill:#1a2747;fill-opacity:1;fill-rule:nonzero;stroke:none"
               d="m 0,0 h -6 v -15.883 h -5.736 V 0 h -6.029 V 5 H 0 Z" /></g><g
             style="fill:#1a2747;fill-opacity:1"
             transform="translate(292.726,687.942)"
             id="g82"><path
               inkscape:connector-curvature="0"
               id="path84"
               style="fill:#1a2747;fill-opacity:1;fill-rule:nonzero;stroke:none"
               d="m 0,0 v -5.001 h -14.883 v 20.884 h 14.618 v -5 H -9.147 V 7.941 h 7.588 V 3.294 H -9.147 V 0 Z" /></g><g
             style="fill:#1a2747;fill-opacity:1"
             transform="translate(300.638,694.353)"
             id="g86"><path
               inkscape:connector-curvature="0"
               id="path88"
               style="fill:#1a2747;fill-opacity:1;fill-rule:nonzero;stroke:none"
               d="M 0,0 H 3.617 C 3.97,0 4.299,0.196 4.603,0.588 4.907,0.98 5.059,1.529 5.059,2.235 5.059,2.961 4.882,3.515 4.529,3.897 4.176,4.28 3.823,4.471 3.47,4.471 H 0 Z M -5.736,-11.412 V 9.47 H 3.853 C 4.872,9.47 5.813,9.26 6.676,8.839 7.539,8.417 8.279,7.868 8.897,7.191 9.515,6.515 10,5.74 10.353,4.868 c 0.353,-0.873 0.53,-1.75 0.53,-2.633 0,-1.216 -0.265,-2.348 -0.794,-3.397 -0.53,-1.049 -1.265,-1.907 -2.207,-2.573 l 4.413,-7.677 H 5.823 L 2.147,-5 H 0 v -6.412 z" /></g><g
             style="fill:#1a2747;fill-opacity:1"
             transform="translate(319.991,694.353)"
             id="g90"><path
               inkscape:connector-curvature="0"
               id="path92"
               style="fill:#1a2747;fill-opacity:1;fill-rule:nonzero;stroke:none"
               d="M 0,0 H 3.617 C 3.97,0 4.299,0.196 4.603,0.588 4.907,0.98 5.059,1.529 5.059,2.235 5.059,2.961 4.882,3.515 4.529,3.897 4.176,4.28 3.823,4.471 3.47,4.471 H 0 Z M -5.735,-11.412 V 9.47 H 3.853 C 4.872,9.47 5.814,9.26 6.676,8.839 7.539,8.417 8.279,7.868 8.897,7.191 9.515,6.515 10,5.74 10.353,4.868 c 0.353,-0.873 0.53,-1.75 0.53,-2.633 0,-1.216 -0.265,-2.348 -0.794,-3.397 -0.53,-1.049 -1.265,-1.907 -2.207,-2.573 l 4.413,-7.677 H 5.823 L 2.147,-5 H 0 v -6.412 z" /></g><g
             style="fill:#1a2747;fill-opacity:1"
             transform="translate(343.491,690.853)"
             id="g94"><path
               inkscape:connector-curvature="0"
               id="path96"
               style="fill:#1a2747;fill-opacity:1;fill-rule:nonzero;stroke:none"
               d="M 0,0 -1.853,6.471 -3.794,0 Z M -4.471,12.971 H 0.765 L 8,-7.912 H 2.177 l -1.265,4.088 h -5.559 l -1.236,-4.088 h -5.853 z" /></g><g
             style="fill:#1a2747;fill-opacity:1"
             transform="translate(358.462,693.206)"
             id="g98"><path
               inkscape:connector-curvature="0"
               id="path100"
               style="fill:#1a2747;fill-opacity:1;fill-rule:nonzero;stroke:none"
               d="m 0,0 v -10.265 h -5.735 v 20.883 h 4.47 L 7.118,0 v 10.618 h 5.735 V -10.265 H 8.294 Z" /></g><g
             style="fill:#1a2747;fill-opacity:1"
             transform="translate(389.287,687.942)"
             id="g102"><path
               inkscape:connector-curvature="0"
               id="path104"
               style="fill:#1a2747;fill-opacity:1;fill-rule:nonzero;stroke:none"
               d="m 0,0 v -5.001 h -14.883 v 20.884 h 14.618 v -5 H -9.147 V 7.941 h 7.588 V 3.294 H -9.147 V 0 Z" /></g><g
             style="fill:#1a2747;fill-opacity:1"
             transform="translate(406.346,687.942)"
             id="g106"><path
               inkscape:connector-curvature="0"
               id="path108"
               style="fill:#1a2747;fill-opacity:1;fill-rule:nonzero;stroke:none"
               d="m 0,0 v -5.001 h -14.883 v 20.884 h 14.618 v -5 H -9.147 V 7.941 h 7.588 V 3.294 H -9.147 V 0 Z" /></g><g
             style="fill:#1a2747;fill-opacity:1"
             transform="translate(265.644,736.92)"
             id="g110"><path
               inkscape:connector-curvature="0"
               id="path112"
               style="fill:#1a2747;fill-opacity:1;fill-rule:nonzero;stroke:none"
               d="M 0,0 C -1.248,0.749 -2.538,1.414 -3.868,1.997 -4.991,2.496 -6.25,2.964 -7.643,3.4 c -1.394,0.437 -2.756,0.655 -4.086,0.655 -1.083,0 -1.945,-0.166 -2.59,-0.499 -0.645,-0.333 -0.967,-0.895 -0.967,-1.684 0,-0.583 0.187,-1.061 0.562,-1.435 0.374,-0.375 0.914,-0.718 1.622,-1.03 0.707,-0.312 1.569,-0.614 2.589,-0.904 1.019,-0.292 2.173,-0.646 3.463,-1.061 2.037,-0.624 3.878,-1.31 5.521,-2.059 1.643,-0.749 3.047,-1.633 4.212,-2.652 1.164,-1.019 2.059,-2.256 2.683,-3.712 0.624,-1.456 0.935,-3.224 0.935,-5.303 0,-2.662 -0.489,-4.898 -1.466,-6.707 -0.977,-1.809 -2.267,-3.255 -3.868,-4.336 -1.602,-1.082 -3.411,-1.862 -5.428,-2.34 -2.018,-0.478 -4.046,-0.717 -6.083,-0.717 -1.622,0 -3.286,0.124 -4.991,0.374 -1.706,0.25 -3.401,0.603 -5.085,1.061 -1.685,0.457 -3.307,0.998 -4.867,1.622 -1.559,0.624 -3.005,1.331 -4.336,2.121 l 5.241,10.669 c 1.455,-0.915 2.973,-1.726 4.555,-2.433 1.33,-0.624 2.838,-1.186 4.523,-1.685 1.684,-0.499 3.4,-0.749 5.147,-0.749 1.331,0 2.256,0.177 2.776,0.531 0.52,0.353 0.78,0.821 0.78,1.404 0,0.623 -0.26,1.154 -0.78,1.591 -0.52,0.436 -1.238,0.82 -2.152,1.154 -0.916,0.332 -1.965,0.665 -3.151,0.998 -1.185,0.332 -2.444,0.727 -3.774,1.185 -1.956,0.665 -3.64,1.383 -5.054,2.153 -1.415,0.769 -2.579,1.643 -3.494,2.62 -0.915,0.977 -1.591,2.09 -2.028,3.338 -0.436,1.248 -0.655,2.683 -0.655,4.305 0,2.454 0.447,4.617 1.342,6.489 0.894,1.872 2.11,3.431 3.65,4.679 1.538,1.248 3.296,2.194 5.272,2.839 1.975,0.644 4.065,0.967 6.27,0.967 1.622,0 3.202,-0.156 4.742,-0.468 1.538,-0.312 3.026,-0.708 4.461,-1.185 1.435,-0.479 2.776,-0.999 4.024,-1.56 1.248,-0.562 2.371,-1.092 3.369,-1.591 z" /></g><g
             style="fill:#1a2747;fill-opacity:1"
             transform="translate(287.23,729.184)"
             id="g114"><path
               inkscape:connector-curvature="0"
               id="path116"
               style="fill:#1a2747;fill-opacity:1;fill-rule:nonzero;stroke:none"
               d="m 0,0 c 0,-1.497 0.208,-2.943 0.624,-4.336 0.415,-1.394 1.039,-2.631 1.872,-3.712 0.831,-1.082 1.881,-1.956 3.15,-2.621 1.269,-0.666 2.777,-0.998 4.524,-0.998 1.747,0 3.265,0.343 4.555,1.029 1.288,0.687 2.339,1.581 3.15,2.683 0.812,1.102 1.414,2.36 1.809,3.775 0.395,1.413 0.593,2.848 0.593,4.305 0,1.497 -0.208,2.942 -0.623,4.336 -0.417,1.393 -1.052,2.62 -1.904,3.681 -0.853,1.061 -1.913,1.913 -3.181,2.558 -1.27,0.644 -2.757,0.967 -4.461,0.967 -1.748,0 -3.256,-0.333 -4.524,-0.998 C 4.315,10.003 3.265,9.119 2.433,8.017 1.601,6.915 0.988,5.667 0.593,4.274 0.197,2.88 0,1.456 0,0 m 10.045,-22.461 c -3.369,0 -6.426,0.645 -9.172,1.934 -2.745,1.289 -5.095,2.984 -7.05,5.085 -1.955,2.1 -3.473,4.502 -4.554,7.206 -1.082,2.704 -1.622,5.491 -1.622,8.361 0,2.911 0.561,5.718 1.684,8.423 1.123,2.703 2.693,5.084 4.711,7.143 2.017,2.059 4.408,3.702 7.175,4.929 2.765,1.227 5.791,1.841 9.078,1.841 3.369,0 6.426,-0.646 9.171,-1.934 2.745,-1.29 5.095,-2.995 7.05,-5.116 1.955,-2.122 3.463,-4.534 4.523,-7.238 1.062,-2.704 1.591,-5.47 1.591,-8.298 0,-2.912 -0.561,-5.709 -1.684,-8.391 -1.124,-2.683 -2.683,-5.054 -4.679,-7.113 -1.997,-2.059 -4.378,-3.712 -7.144,-4.96 -2.766,-1.248 -5.793,-1.872 -9.078,-1.872" /></g><g
             style="fill:#1a2747;fill-opacity:1"
             transform="translate(351.493,736.92)"
             id="g118"><path
               inkscape:connector-curvature="0"
               id="path120"
               style="fill:#1a2747;fill-opacity:1;fill-rule:nonzero;stroke:none"
               d="M 0,0 C -1.248,0.749 -2.538,1.414 -3.869,1.997 -4.991,2.496 -6.25,2.964 -7.643,3.4 c -1.394,0.437 -2.756,0.655 -4.086,0.655 -1.083,0 -1.946,-0.166 -2.59,-0.499 -0.645,-0.333 -0.967,-0.895 -0.967,-1.684 0,-0.583 0.187,-1.061 0.562,-1.435 0.374,-0.375 0.914,-0.718 1.622,-1.03 0.707,-0.312 1.569,-0.614 2.589,-0.904 1.018,-0.292 2.173,-0.646 3.463,-1.061 2.037,-0.624 3.878,-1.31 5.521,-2.059 1.643,-0.749 3.046,-1.633 4.212,-2.652 1.164,-1.019 2.059,-2.256 2.683,-3.712 0.623,-1.456 0.935,-3.224 0.935,-5.303 0,-2.662 -0.489,-4.898 -1.466,-6.707 -0.978,-1.809 -2.267,-3.255 -3.868,-4.336 -1.602,-1.082 -3.411,-1.862 -5.428,-2.34 -2.018,-0.478 -4.046,-0.717 -6.083,-0.717 -1.622,0 -3.286,0.124 -4.991,0.374 -1.706,0.25 -3.401,0.603 -5.086,1.061 -1.684,0.457 -3.306,0.998 -4.866,1.622 -1.559,0.624 -3.006,1.331 -4.336,2.121 l 5.241,10.669 c 1.455,-0.915 2.973,-1.726 4.555,-2.433 1.33,-0.624 2.838,-1.186 4.523,-1.685 1.684,-0.499 3.4,-0.749 5.147,-0.749 1.331,0 2.256,0.177 2.776,0.531 0.52,0.353 0.78,0.821 0.78,1.404 0,0.623 -0.26,1.154 -0.78,1.591 -0.52,0.436 -1.237,0.82 -2.152,1.154 -0.916,0.332 -1.965,0.665 -3.151,0.998 -1.185,0.332 -2.444,0.727 -3.774,1.185 -1.956,0.665 -3.641,1.383 -5.054,2.153 -1.415,0.769 -2.58,1.643 -3.494,2.62 -0.915,0.977 -1.591,2.09 -2.028,3.338 -0.436,1.248 -0.655,2.683 -0.655,4.305 0,2.454 0.447,4.617 1.342,6.489 0.894,1.872 2.11,3.431 3.65,4.679 1.538,1.248 3.296,2.194 5.272,2.839 1.975,0.644 4.064,0.967 6.27,0.967 1.622,0 3.202,-0.156 4.742,-0.468 1.537,-0.312 3.026,-0.708 4.461,-1.185 1.435,-0.479 2.775,-0.999 4.024,-1.56 1.248,-0.562 2.371,-1.092 3.369,-1.591 z" /></g></g></g></g></g></svg>